<svg xmlns="http://www.w3.org/2000/svg" style="display:none">
  <!-- Dashboard -->
  <symbol id="icon-dashboard" viewBox="0 0 24 24" fill="currentColor">
    <rect x="3" y="3" width="7" height="7" rx="1"/>
    <rect x="14" y="3" width="7" height="7" rx="1"/>
    <rect x="3" y="14" width="7" height="7" rx="1"/>
    <rect x="14" y="14" width="7" height="7" rx="1"/>
  </symbol>

  <!-- Estoque -->
  <symbol id="icon-estoque" viewBox="0 0 24 24" fill="currentColor">
    <path d="M3 4h18v2H3V4zm1 4h16v10H4V8zm2 2v6h2v-6H6zm5 0v6h2v-6h-2zm5 0v6h2v-6h-2z"/>
  </symbol>

  <!-- Movimentações -->
  <symbol id="icon-movimentacoes" viewBox="0 0 24 24" fill="currentColor">
    <path d="M15 5l-1.41 1.41L18.17 10H4v2h14.17l-4.58 3.59L15 17l7-7-7-5z"/>
  </symbol>

  <!-- Peças -->
  <symbol id="icon-pecas" viewBox="0 0 24 24" fill="currentColor">
    <path d="M19.43 12.98c.04-.32.07-.64.07-.98s-.03-.66-.07-.98l2.11-1.65c.19-.15.24-.42.12-.64l-2-3.46c-.12-.22-.39-.3-.61-.22l-2.49 1c-.52-.4-1.08-.73-1.69-.98l-.38-2.65C14.46 2.18 14.25 2 14 2h-4c-.25 0-.46.18-.49.52l-.38 2.65c-.61.25-1.17.59-1.69.98l-2.49-1c-.23-.09-.49 0-.61.22l-2 3.46c-.13.22-.07.49.12.64l2.11 1.65c-.04.32-.07.65-.07.98s.03.66.07.98l-2.11 1.65c-.19.15-.24.42-.12.64l2 3.46c.12.22.39.3.61.22l2.49-1c.52.4 1.08.73 1.69.98l.38 2.65c.03.34.24.52.49.52h4c.25 0 .46-.18.49-.52l.38-2.65c.61-.25 1.17-.59 1.69-.98l2.49 1c.23.09.49 0 .61-.22l2-3.46c.12-.22.07-.49-.12-.64l-2.11-1.65zM12 15.5c-1.93 0-3.5-1.57-3.5-3.5s1.57-3.5 3.5-3.5 3.5 1.57 3.5 3.5-1.57 3.5-3.5 3.5z"/>
  </symbol>

  <!-- Ativos -->
  <symbol id="icon-ativos" viewBox="0 0 24 24" fill="currentColor">
    <path d="M12 2C6.48 2 2 6.48 2 12s4.48 10 10 10 10-4.48 10-10S17.52 2 12 2zm-2 15l-5-5 1.41-1.41L10 14.17l7.59-7.59L19 8l-9 9z"/>
  </symbol>

  <!-- Requisições -->
  <symbol id="icon-requisicoes" viewBox="0 0 24 24" fill="currentColor">
    <path d="M14 2H6a2 2 0 00-2 2v16a2 2 0 002 2h12a2 2 0 002-2V8l-6-6z"/>
    <path d="M16 18H8v-2h8v2zm0-4H8v-2h8v2zm0-4H8V8h8v2z" fill="white" opacity="0.3"/>
  </symbol>

  <!-- Consertos -->
  <symbol id="icon-consertos" viewBox="0 0 24 24" fill="currentColor">
    <path d="M19.35 10.04C18.67 6.59 15.64 4 12 4c-1.48 0-2.85.43-4.01 1.17l1.46 1.46C10.21 6.23 11.08 6 12 6c3.04 0 5.5 2.46 5.5 5.5v.5H19c1.66 0 3 1.34 3 3 0 1.13-.64 2.11-1.56 2.62.03-.32.05-.64.05-.97 0-.95-.19-1.86-.52-2.75l-.03-.12-.9-.9zM17 16v-6h-6v6h6zM5 6.41L6.41 5 16 14.59 14.59 16 5 6.41z"/>
  </symbol>

  <!-- Relatórios -->
  <symbol id="icon-relatorios" viewBox="0 0 24 24" fill="currentColor">
    <path d="M19 3H5c-1.1 0-2 .9-2 2v14c0 1.1.9 2 2 2h14c1.1 0 2-.9 2-2V5c0-1.1-.9-2-2-2zM9 17H7v-7h2V17zm4 0h-2V7h2V17zm4 0h-2v-4h2V17z"/>
  </symbol>

  <!-- Etiquetas -->
  <symbol id="icon-etiquetas" viewBox="0 0 24 24" fill="currentColor">
    <path d="M17.63 5.84C17.27 5.33 16.67 5 16 5L5 5.01C3.9 5.01 3 5.9 3 7v10c0 1.1.9 1.99 2 1.99L16 19c.67 0 1.27-.33 1.63-.84L22 12l-4.37-6.16z"/>
  </symbol>

  <!-- Aprovações -->
  <symbol id="icon-aprovacoes" viewBox="0 0 24 24" fill="currentColor">
    <path d="M12 2C6.48 2 2 6.48 2 12s4.48 10 10 10 10-4.48 10-10S17.52 2 12 2zm-2 15l-5-5 1.41-1.41L10 14.17l7.59-7.59L19 8l-9 9z"/>
  </symbol>

  <!-- Ajustes -->
  <symbol id="icon-ajustes" viewBox="0 0 24 24" fill="currentColor">
    <path d="M12 8c2.21 0 4-1.79 4-4s-1.79-4-4-4-4 1.79-4 4 1.79 4 4 4zm0 2c-2.67 0-8 1.34-8 4v2h16v-2c0-2.66-5.33-4-8-4zm0 9c-2.21 0-4 1.79-4 4s1.79 4 4 4 4-1.79 4-4-1.79-4-4-4z"/>
  </symbol>

  <!-- Configurações -->
  <symbol id="icon-config" viewBox="0 0 24 24" fill="currentColor">
    <path d="M19.14 12.94c.04-.3.06-.61.06-.94 0-.32-.02-.64-.07-.94l2.03-1.58c.18-.14.23-.41.12-.62l-1.92-3.32c-.12-.22-.37-.29-.59-.22l-2.39.96c-.5-.38-1.03-.7-1.62-.94L14.4 2.81c-.04-.24-.24-.41-.48-.41h-3.84c-.24 0-.43.17-.47.41L9.25 5.35C8.66 5.59 8.12 5.92 7.63 6.29L5.24 5.33c-.22-.08-.47 0-.59.22L2.74 8.87c-.12.21-.08.48.11.62l2.03 1.58c-.05.3-.07.62-.07.94s.02.64.07.94l-2.03 1.58c-.18.14-.23.41-.12.62l1.92 3.32c.12.22.37.29.59.22l2.39-.96c.5.38 1.03.7 1.62.94l.36 2.54c.05.24.24.41.48.41h3.84c.24 0 .44-.17.47-.41l.36-2.54c.59-.24 1.13-.56 1.62-.94l2.39.96c.22.08.47 0 .59-.22l1.92-3.32c.12-.22.07-.48-.11-.62l-2.01-1.58zM12 15.6c-1.98 0-3.6-1.62-3.6-3.6s1.62-3.6 3.6-3.6 3.6 1.62 3.6 3.6-1.62 3.6-3.6 3.6z"/>
  </symbol>

  <!-- Logout -->
  <symbol id="icon-logout" viewBox="0 0 24 24" fill="currentColor">
    <path d="M17 7l-1.41 1.41L18.17 11H8v2h10.17l-2.58 2.58L17 17l5-5zM4 5h8V3H4c-1.1 0-2 .9-2 2v14c0 1.1.9 2 2 2h8v-2H4V5z"/>
  </symbol>
</svg>
